<?xml version="1.0" encoding="UTF-8"?>
<svg id="Layer_2" data-name="Layer 2" xmlns="http://www.w3.org/2000/svg" viewBox="0 0 122.67 122.67">
  <defs>
    <style>
      .cls-1 {
        fill: #fff;
      }

      .cls-2 {
        fill: #fafafa;
      }

      .cls-3 {
        fill: #95ab1c;
      }
    </style>
  </defs>
  <g id="Layer_1-2" data-name="Layer 1">
    <rect class="cls-3" width="122.67" height="122.67"/>
    <g>
      <g>
        <path class="cls-2" d="M89.69,25.66c-.11-.05-.22-.1-.33-.14-20.05-6.76-43.38-3.98-74.34-15.7,0,0,6.59,7.86,6.59,23.36.1-.06.2-.12.3-.18.81-5.45,1.83-11.85-2.37-18.46,13.85,12.48,57.79,6.51,76.67,21.91,20.46,16.69.86,44.94-9.8,54.05,1.9,1.29,3.89,2.45,5.84,3.66.26-.13.49-.31.68-.58,9.69-6.29,35.46-51.85-3.23-67.91Z"/>
        <path class="cls-1" d="M92.22,94.44l-.12-.07c-.56-.35-1.12-.69-1.69-1.04-1.37-.84-2.8-1.71-4.16-2.63l-.27-.18.25-.21c7.3-6.23,18.82-21.47,18.65-35.8-.08-7.13-3.06-13.15-8.85-17.87-9.84-8.02-26.32-10.19-42.26-12.28-13.53-1.77-26.35-3.46-33.31-8.72,3.35,6.15,2.48,12,1.71,17.2l-.05.32-.09.06c-.1.07-.2.13-.31.19l-.38.22v-.44c0-15.22-6.46-23.12-6.53-23.2l-.61-.73.89.34c17.81,6.74,33.16,8.69,46.7,10.4,9.83,1.25,19.11,2.42,27.63,5.29.08.03.17.06.25.1l.1.04c12.61,5.23,19.55,13.97,20.65,25.96,1.67,18.23-11.19,38.32-17.34,42.37-.19.27-.45.48-.75.63l-.12.06ZM86.82,90.47c1.27.85,2.59,1.65,3.87,2.43.52.32,1.05.64,1.57.96.19-.11.34-.25.46-.44l.07-.07c6.05-3.93,18.81-23.84,17.15-41.93-1.08-11.79-7.92-20.39-20.34-25.54h0l-.11-.05c-.07-.03-.14-.06-.21-.08-8.47-2.85-17.73-4.03-27.54-5.27-13.37-1.69-28.49-3.61-46.02-10.13,1.5,2.16,5.79,9.39,6.12,21.38.76-5.2,1.33-11.02-2.51-17.06l-.98-1.55,1.36,1.23c6.53,5.89,19.95,7.65,34.15,9.51,16.01,2.1,32.57,4.27,42.51,12.39,5.91,4.82,8.95,10.96,9.03,18.25.16,14.34-11.2,29.55-18.58,35.97Z"/>
      </g>
      <g>
        <path class="cls-2" d="M79.95,90.08c6.45,0,8.09-10.75,8.85-16.73,12.02.5,15.74-25.09,3.28-35.15-13.12-12.35-47.63-8.53-67.01-17.16,6.85,10.49,14.43,10.62,22.15,18.32,0,0-7.87-8.76-13.85-12.35,19.09,6.9,53.21,2.93,60.36,20.45,1.9,4.78,1.74,18.71-2.93,21.5-3.79,2.66-1.46-9.69-8.89-7.83-5.1,1.73-9.18,9.56-4.37,8.9,4.81-.67,8.6,1.46,8.45,2.79-.15,1.33-2.19,13.28-10.5,14.07-3.32-1.19-7.58-7.87-8.34-5.97-2.76,5.48,6.12,22.28-2.28,22.76-.13.14-.27.26-.42.37-.11.1-.23.18-.35.27,0,.02,0,.04,0,.06,7.15,2.78,8.63-.13,5.78-12.21-2.84-10.45,0-6.37,1.2-4.88,10.28,12.05,25.1,19.94,32.89,25.55l4.28-7.79c-9.68-2.7-22.22-10.19-28.31-14.97Z"/>
        <path class="cls-1" d="M104.07,113.21l-.23-.17c-1.89-1.36-4.15-2.83-6.76-4.52-8.19-5.31-18.38-11.93-26.18-21.07l-.26-.33c-.33-.42-1.34-1.71-1.62-1.63-.1.06-.5.68,1.11,6.61,1.77,7.52,1.81,11.34.13,12.8-1.15,1.01-3.14.91-6.25-.3l-.17-.07v-.18s0-.14,0-.14l.11-.11c.11-.08.22-.16.32-.25.15-.11.28-.23.41-.35l.07-.07h.1c1.16-.07,2-.46,2.57-1.19,1.61-2.07.75-6.62-.09-11.02-.8-4.19-1.55-8.15-.41-10.42.13-.32.35-.43.51-.46.71-.15,1.69.8,3.36,2.49,1.51,1.52,3.22,3.24,4.72,3.8,8.55-.88,10.2-13.72,10.21-13.85.02-.23-.13-.52-.44-.82-1-.97-3.89-2.23-7.73-1.69-1.77.24-2.25-.63-2.37-1.17-.54-2.28,2.8-6.91,6.63-8.21,4.48-1.12,5.62,2.65,6.45,5.41.4,1.31.77,2.55,1.37,2.76.26.09.59,0,1.01-.3,4.44-2.65,4.75-16.38,2.84-21.21-4.66-11.44-21.19-13.64-37.18-15.76-7.38-.98-14.98-1.99-21.18-3.93,5.65,3.99,12.2,11.24,12.27,11.32l-.36.34c-3.14-3.13-6.29-5.02-9.33-6.84-4.52-2.71-8.78-5.27-12.86-11.52l-.46-.71.77.34c8.34,3.72,19.65,5.13,30.59,6.5,14.91,1.87,28.98,3.63,36.49,10.7,7.98,6.44,9.45,19.06,6.25,27.54-1.95,5.19-5.41,8.09-9.49,8.05-.64,5.01-2.13,15.94-8.39,16.68,6,4.58,18.13,11.85,27.7,14.52l.3.08-4.57,8.32ZM69.03,84.99c.52,0,1.18.77,2.01,1.82l.25.32c7.75,9.09,17.91,15.68,26.07,20.97,2.51,1.63,4.69,3.05,6.55,4.37l3.99-7.27c-9.88-2.84-22.34-10.41-28.1-14.93l-.57-.45h.72c5.76,0,7.62-8.82,8.61-16.51l.03-.23h.23c3.94.18,7.32-2.64,9.23-7.71,3.13-8.31,1.7-20.68-6.12-26.99-7.4-6.97-21.4-8.72-36.23-10.58-10.64-1.33-21.62-2.71-29.95-6.21,3.87,5.64,7.94,8.08,12.23,10.66,1.82,1.09,3.68,2.21,5.55,3.6-2.83-2.83-6.88-6.59-10.28-8.63l.21-.45c6.45,2.33,14.82,3.44,22.92,4.52,16.13,2.14,32.8,4.36,37.58,16.07,2.02,5.08,1.67,19-3.03,21.81-.54.38-1.02.5-1.44.35-.84-.29-1.22-1.52-1.69-3.08-.82-2.7-1.83-6.08-5.83-5.07-3.7,1.25-6.71,5.79-6.29,7.61.16.67.77.94,1.82.79,3.6-.5,6.83.54,8.15,1.83.43.42.63.84.59,1.23-.01.13-1.73,13.43-10.72,14.3h-.06s-.05-.01-.05-.01c-1.62-.58-3.39-2.37-4.96-3.94-1.14-1.15-2.42-2.46-2.91-2.35-.03,0-.09.02-.16.17-1.08,2.14-.3,6.2.44,10.12.86,4.51,1.74,9.17,0,11.42-.64.81-1.59,1.27-2.84,1.37-.12.12-.25.23-.38.33-.01.01-.02.02-.04.03,2.7,1,4.41,1.08,5.37.25,1.5-1.3,1.41-5.1-.29-12.3-1.6-5.88-1.35-6.93-.85-7.18.07-.04.15-.05.23-.05Z"/>
      </g>
      <g>
        <path class="cls-2" d="M73.83,40.49c.94-.17.15-3.16-1.68-3.98-1.74-.13-3.46-.31-5.15-.72-.48,4.08,3.02,10.81,2.75,16.71-.07,1.19-1.31-.8-4.59-.33-3.28.46-2.77,2.99-.51,6.51,2.26,3.52,4.88,1.26,5.47.4.58-.86,1.9-1.19,1.75.33-.44,14.8-6.63,17.66-12.68,15.2,4.15,3.98,9.91,5.44,11.95,1.13,4.81-10.95,2.19-16.2,1.24-18.65-.95-2.45-1.02-4.11-2.7-10.75-1.09-6.04,3.06-5.64,4.15-5.84Z"/>
        <path class="cls-1" d="M66.96,78.61c-2.45,0-5.45-1.42-7.95-3.82l-.94-.9,1.21.49c2.72,1.1,5.2,1.01,7.16-.27,3.16-2.06,4.95-7.15,5.17-14.71.02-.22.04-.69-.23-.78-.25-.09-.75.13-1.07.6-.31.45-1.42,1.62-2.89,1.62-.01,0-.02,0-.03,0-1.11-.01-2.11-.69-2.96-2.02-1.67-2.6-2.2-4.35-1.67-5.5.34-.75,1.13-1.21,2.35-1.39,1.86-.26,3.09.24,3.83.54.2.08.44.18.53.18h0s0-.06.02-.15c.14-3.03-.75-6.37-1.54-9.32-.74-2.78-1.44-5.4-1.21-7.41l.03-.28.27.07c1.59.39,3.19.57,5.1.71l.08.02c1.52.68,2.34,2.67,2.22,3.69-.05.42-.27.7-.59.76h0c-.13.02-.3.04-.5.06-.86.08-2.17.2-2.96,1.24-.68.89-.85,2.33-.5,4.25.7,2.77,1.13,4.72,1.44,6.14.45,2.04.7,3.16,1.24,4.56l.17.43c1.03,2.59,3.18,7.97-1.41,18.41-.7,1.47-1.87,2.4-3.39,2.68-.33.06-.67.09-1.02.09ZM60.29,75.26c2.54,2.09,5.43,3.16,7.6,2.77,1.37-.25,2.39-1.06,3.02-2.4,4.5-10.25,2.41-15.5,1.4-18.02l-.17-.44c-.56-1.44-.82-2.64-1.26-4.64-.31-1.42-.74-3.36-1.44-6.15-.38-2.09-.18-3.65.59-4.66.92-1.22,2.42-1.35,3.31-1.43.18-.02.33-.03.45-.05h0c.12-.02.17-.19.19-.33.1-.86-.66-2.59-1.89-3.16-1.81-.14-3.34-.31-4.86-.66-.13,1.88.53,4.34,1.22,6.94.8,2.98,1.7,6.37,1.55,9.48-.01.18-.05.43-.25.56-.25.15-.54.03-.99-.15-.69-.28-1.83-.75-3.57-.51-1.05.15-1.7.51-1.97,1.1-.45.97.09,2.62,1.63,5.03.76,1.18,1.61,1.78,2.55,1.79h.03c1.25,0,2.23-1.04,2.47-1.4.42-.63,1.15-.97,1.65-.79.25.09.64.37.56,1.29-.23,7.72-2.1,12.94-5.4,15.1-1.81,1.18-4.01,1.43-6.42.73Z"/>
      </g>
      <g>
        <path class="cls-2" d="M58.16,30.34l-1.17.2c1.97,5.63,1.86,10.4-1.26,9.01.6,4.53-1.64,7.32-3.94,4.53.27,11.2-2.84,11.6-5.63,9.91.16,5.53-1.75,7.42-4.34,5.1,0,0,.34,3.1-1.46,4.51-2.19,1.73-3.06-.86-3.86-1.19-.15,2.92,1.02,7.3-2.19,9.16-4.3,1.93-5.9-2.79-8.45-6.84-4.52,6.84,6.34,21.11,1.68,21.97-3.21.66-9.36-7.87-11.11-18.62-2.3-19.92,12.24-23.2,9.8-35.94-1.9,3.05-7.07,4.71-8.53,5.24-.05.02-.09.04-.13.06.25,1.3-2.12,6.32-2.08,7.64,1.89.41,9.14-6.17,9.14-6.17-1.53,4.25-9.09,12.11-10.73,17.49-4.92,16.03,2.93,26.35,6.84,29.45,4.81,3.81,11.9,3.44,10.74.33-2.77-5.18-5.25-13.54-4.95-15.33.58-2.06,2.19.46,4.59,2.79,3.86,3.65,7,1.79,6.78-4.05-.07-1.66-.22-3.05.73-2.45,1.75,1.06,3.57.86,3.94-.86.44-2.46.29-2.39,1.67-2.32,2.33.2,3.06-2.33,3.21-4.71.14-2.39.51-1.73,1.46-1.19,4.37,1.53,4.45-7.04,4.3-8.43s1.09-.46,1.97-.6c1.97.13,2.26-2.46,2.19-3.72-.07-1.26,1.31-1,2.19-1.73,1.82-2.06-1.09-9.03-1.38-13.21Z"/>
        <path class="cls-1" d="M28.33,88.86c-2.31,0-5.33-.92-7.73-2.83-4.79-3.8-11.65-14.34-6.93-29.72.91-2.98,3.54-6.61,6.08-10.12,1.69-2.34,3.31-4.57,4.2-6.35-2.04,1.78-6.89,5.83-8.51,5.47l-.19-.04v-.2c-.02-.65.45-1.97.99-3.5.57-1.62,1.22-3.46,1.1-4.1l-.04-.19.18-.08c.07-.04.11-.05.15-.07l.34-.12c1.73-.61,6.34-2.24,8.06-5.02l.34-.54.12.63c1.13,5.91-1.29,9.75-4.09,14.2-3.26,5.17-6.95,11.02-5.71,21.76,1.4,8.59,5.53,15.56,8.71,17.75.8.55,1.53.78,2.1.66.38-.07.63-.23.79-.5.63-1.09-.3-3.74-1.37-6.81-1.68-4.79-3.76-10.75-1.25-14.55l.21-.32.21.33c.44.69.84,1.4,1.24,2.09,1.9,3.3,3.54,6.16,6.9,4.65,2.33-1.35,2.19-4.22,2.08-6.76-.04-.78-.07-1.51-.04-2.18l.02-.35.33.14c.27.11.51.39.79.71.7.8,1.42,1.64,2.82.52,1.66-1.31,1.37-4.26,1.36-4.29l-.07-.65.48.43c.63.57,1.55,1.16,2.35.79,1.09-.5,1.66-2.58,1.57-5.69v-.46s.38.24.38.24c1.24.75,2.26.9,3.04.45,1.61-.93,2.35-4.34,2.21-10.14l-.02-.72.46.56c.72.87,1.46,1.2,2.09.93.99-.43,1.79-2.38,1.4-5.27l-.06-.44.41.18c.69.31,1.22.29,1.58-.04,1.06-.97.79-4.54-.66-8.66l-.1-.28,1.73-.3.02.28c.1,1.46.54,3.32.96,5.11.83,3.52,1.62,6.85.36,8.28-.38.32-.8.47-1.17.6-.66.23-.98.37-.95.95.02.4.08,2.43-.94,3.44-.4.4-.9.58-1.51.54-.28.05-.63-.03-.95-.1-.27-.06-.6-.13-.7-.05-.02.02-.09.11-.06.47.1.97.15,6.61-2.07,8.36-.71.56-1.57.67-2.56.33-.18-.1-.32-.18-.44-.26-.16-.1-.38-.23-.45-.23-.04.03-.17.25-.25,1.47-.13,2.12-.65,3.59-1.54,4.36-.53.46-1.18.66-1.94.59h-.11q-.92-.05-1.2,1.53l-.1.59c-.16.74-.56,1.27-1.18,1.54-.84.36-2.02.18-3.14-.5-.18-.11-.26-.11-.26-.1-.19.11-.14,1.22-.1,1.95l.02.39c.12,3.08-.7,5.25-2.24,5.95-1.37.63-3.13.02-4.96-1.7-.56-.55-1.09-1.11-1.55-1.6-.95-1.02-1.85-1.97-2.27-1.87-.18.04-.29.33-.36.57-.26,1.61,2.12,9.89,4.94,15.15.33.87.12,1.61-.57,2.11-.64.46-1.63.7-2.81.7ZM25.21,38.04l-.34.94c-.71,1.96-2.65,4.65-4.72,7.5-2.52,3.48-5.13,7.08-6.01,9.98-4.64,15.12,2.06,25.46,6.76,29.18,3.69,2.93,8.43,3.21,9.94,2.11.51-.37.65-.88.41-1.5-2.71-5.06-5.28-13.55-4.97-15.46.16-.57.4-.87.73-.95.7-.17,1.52.7,2.75,2.02.46.49.98,1.05,1.53,1.58,1.66,1.57,3.23,2.14,4.4,1.61,1.35-.61,2.06-2.6,1.95-5.47l-.02-.38c-.06-1.29-.1-2.14.35-2.4.21-.12.47-.09.78.11.98.59,1.98.77,2.67.47.46-.2.76-.6.88-1.17l.1-.58c.31-1.79.35-2.01,1.71-1.95h.12c.64.06,1.15-.09,1.58-.46.98-.85,1.28-2.65,1.36-4.01.08-1.25.21-1.72.53-1.88.29-.15.59.04.93.26.11.07.24.15.37.23.79.27,1.47.19,2.05-.27,1.9-1.51,2.02-6.61,1.88-7.92-.03-.27-.04-.66.22-.89.28-.25.7-.17,1.14-.07.29.06.58.13.82.09.51.03.88-.1,1.18-.4.68-.67.85-2.07.8-3.06-.06-.99.66-1.23,1.29-1.45.35-.12.7-.24.99-.48,1.06-1.21.27-4.56-.5-7.81-.4-1.71-.82-3.47-.96-4.92l-.61.1c1.47,4.32,1.64,7.8.43,8.92-.31.29-.85.54-1.72.28.26,2.63-.44,4.81-1.75,5.38-.43.19-1.25.32-2.22-.58.08,5.67-.73,8.93-2.47,9.93-.86.5-1.92.42-3.16-.24.03,3.12-.62,5.15-1.86,5.72-.51.24-1.33.32-2.45-.51,0,1-.16,3.04-1.58,4.16-1.78,1.4-2.86.16-3.51-.59-.09-.11-.18-.21-.27-.3,0,.52.02,1.07.05,1.65.12,2.68.27,5.71-2.35,7.23-3.8,1.7-5.63-1.48-7.56-4.85-.33-.57-.66-1.16-1.02-1.73-2.05,3.62-.08,9.23,1.51,13.77,1.16,3.32,2.08,5.94,1.33,7.23-.23.4-.61.65-1.13.74-.72.15-1.55-.1-2.48-.74-3.27-2.25-7.5-9.35-8.93-18.09-1.26-10.92,2.48-16.86,5.78-22.1,2.65-4.2,4.95-7.85,4.12-13.25-2.01,2.61-6.29,4.12-7.96,4.71l-.29.1c.03.85-.54,2.46-1.14,4.15-.42,1.2-.86,2.44-.95,3.1,1.54-.1,5.97-3.64,8.71-6.13l.74-.68Z"/>
      </g>
      <g>
        <path class="cls-2" d="M65.09,90.61c-1.31-3.25-3.35-6.17-9.47-7.04-.34-.03-.6.03-.78.14.27.98.6,1.94.97,2.89.55.4,1.25.7,2.07.75,3.13.2,4.89,2.41,4.96,4.54.07,2.12-1.76,8.8-8.24,8.34-2.91-.27-5.61-4.84-3.79-11.81,2.04-8.3,7.21-17.46.87-24.76,0,0-.73,2.39-4.45,3.91-1.09.8.66,4.18,2.48,3.39,1.82-.8,2.84-2.19,3.5-2.72.65-.53,1.16,1.26.8,4.38-.15,4.12-8.47,15.57-5.99,23.53,1.9,7.37,9.56,10.19,14.37,5.68,2.11-2.12,4.01-7.97,2.7-11.22Z"/>
        <path class="cls-1" d="M57.04,104.25c-.76,0-1.54-.11-2.31-.33-3.36-.98-5.96-3.86-6.95-7.71-1.65-5.29,1.32-11.91,3.7-17.23,1.2-2.68,2.23-4.99,2.28-6.37.31-2.69-.05-4.06-.32-4.21-.01,0-.04,0-.07.03-.16.13-.35.32-.58.55-.67.68-1.59,1.6-2.98,2.21-1.08.47-2.15-.32-2.72-1.31-.49-.85-.7-2,0-2.5,3.6-1.49,4.35-3.76,4.36-3.79l.13-.43.29.34c5.12,5.89,2.88,12.93.72,19.74-.55,1.73-1.12,3.53-1.54,5.24-1.01,3.87-.68,7.5.88,9.73.74,1.06,1.7,1.69,2.69,1.78,2.11.15,3.88-.46,5.29-1.81,2.12-2.04,2.72-5.11,2.68-6.27-.07-1.99-1.71-4.1-4.73-4.3-.8-.05-1.56-.33-2.2-.8l-.06-.04-.03-.07c-.41-1.04-.73-1.99-.98-2.91l-.05-.18.16-.1c.24-.15.56-.22.94-.18,6.32.89,8.39,3.98,9.68,7.19,1.38,3.43-.67,9.4-2.75,11.49-1.57,1.48-3.51,2.25-5.53,2.25ZM54.38,70.34c.02.67-.02,1.45-.12,2.31-.05,1.45-1.1,3.81-2.32,6.54-2.35,5.25-5.27,11.77-3.67,16.89.95,3.69,3.42,6.43,6.61,7.36,2.64.77,5.32.11,7.35-1.79,1.98-1.99,3.95-7.68,2.63-10.94h0c-1.43-3.55-3.56-6.07-9.28-6.88-.17-.01-.32,0-.45.04.23.82.52,1.67.88,2.59.55.39,1.2.62,1.88.66,3.31.21,5.12,2.56,5.2,4.78.04,1.24-.6,4.49-2.84,6.65-1.51,1.46-3.42,2.12-5.68,1.95-1.14-.1-2.23-.81-3.06-1.99-1.67-2.38-2.02-6.08-.96-10.14.42-1.73,1-3.53,1.55-5.27,1.36-4.28,2.75-8.66,2.27-12.75ZM51.75,64.13c-.38.77-1.51,2.48-4.42,3.67-.31.23-.24,1.05.2,1.82.46.8,1.28,1.46,2.08,1.11,1.3-.57,2.18-1.46,2.83-2.1.23-.23.43-.44.62-.58.2-.16.43-.19.63-.08.1.05.19.14.26.26-.42-1.42-1.13-2.79-2.2-4.09Z"/>
      </g>
      <g>
        <path class="cls-2" d="M41.33,23.63l1.53,4.38s-3.13,12.21-11,17.06c0,0,7.36-7.5,9.47-21.44Z"/>
        <path class="cls-1" d="M30.24,46.36l1.43-1.46c.07-.07,7.33-7.61,9.41-21.3l.15-1,1.89,5.4-.02.07c-.03.12-3.25,12.37-11.12,17.21l-1.74,1.07ZM41.42,24.64c-1.69,9.79-5.97,16.33-8.12,19.1,6.27-5.05,9.04-14.78,9.3-15.72l-1.18-3.38Z"/>
      </g>
    </g>
  </g>
</svg>