<?xml version="1.0" encoding="UTF-8"?>
<svg id="Layer_2" data-name="Layer 2" xmlns="http://www.w3.org/2000/svg" viewBox="0 0 161.35 208.89">
  <defs>
    <style>
      .cls-1 {
        fill: #112b32;
      }
    </style>
  </defs>
  <g id="Layer_1-2" data-name="Layer 1">
    <g>
      <path class="cls-1" d="M106.6,57.77c-12.63-9.19-25.34-14.9-25.47-14.95l-.46-.21-.46.21c-.13.06-12.87,5.78-25.47,14.95-16.76,12.19-25.25,24.34-25.25,36.13v114.99h102.36v-114.99c0-11.79-8.5-23.94-25.25-36.13ZM62.27,68.15c6.77-4.93,13.65-8.81,18.4-11.27,4.75,2.46,11.64,6.34,18.4,11.27,12.87,9.37,19.95,18.51,19.95,25.75v102.17H42.32v-102.17c0-7.24,7.09-16.38,19.95-25.75Z"/>
      <path class="cls-1" d="M81.02.11l-.35-.11-.34.11C77.05,1.16,0,26.23,0,70.17v138.72h20.51v-12.83h-7.69v-125.9c0-17.09,18.34-31.58,33.73-40.72,13.22-7.85,26.53-13.15,33.53-15.68l.58.24.59-.24c7,2.53,20.31,7.83,33.53,15.68,15.39,9.14,33.73,23.63,33.73,40.72v125.9h-7.69v12.83h20.51V70.17C161.35,26.21,84.3,1.15,81.02.11Z"/>
    </g>
  </g>
</svg>